# xmcd CD database file
#
# Track frame offsets:
#	150
#	8657
#	18934
#	26222
#	34092
#	44013
#	53383
#	59889
#	65086
#	74196
#	84971
#	91618
#	99096
#	109130
#	118285
#	136336
#	148428
#	156227
#	162992
#	172286
#	180316
#	189661
#	199793
#	205615
#	213651
#	224728
#	234621
#	242976
#	253391
#	262142
#	272764
#	279644
#	290303
#	298817
#	309729
#
# Disc length: 4272 seconds
#
# Revision: 0
# Processed by: cddbd v1.5.1PL0 Copyright (c) Steve Scherf et al.
# Submitted via: CDex 1.51
#
DISCID=3710ae23
DTITLE=Adolescents Orquesta - 35 Pegaditas
DYEAR=1900
DGENRE=Salsa
TTITLE0=Celos Y Distancia
TTITLE1=Dame Un Poco Más
TTITLE2=Clase Social
TTITLE3=Llámame
TTITLE4=Me Gustas
TTITLE5=Recuerdos
TTITLE6=Virgen
TTITLE7=Anhelos
TTITLE8=Amiga
TTITLE9=Horas Lindas
TTITLE10=Si Te Marchas
TTITLE11=Corazón Corazón
TTITLE12=Tú Serás
TTITLE13=No Puedo Ser Tu Amigo
TTITLE14=Mi Error
TTITLE15=Hoy Aprendí
TTITLE16=Confeciones
TTITLE17=Mírame
TTITLE18=Conmigo O Con El
TTITLE19=Cruel Decisión
TTITLE20=Dame Una Oportunidad
TTITLE21=Comencemos Hoy
TTITLE22=Frente A Mi Ventana
TTITLE23=Huellas
TTITLE24=Chico Vacilón
TTITLE25=Amantes Discretos
TTITLE26=Envidioso
TTITLE27=Latino
TTITLE28=Me Nego
TTITLE29=No Te Burles
TTITLE30=Fanático
TTITLE31=Ancianos
TTITLE32=Arrepentida
TTITLE33=Dos Inocentes
TTITLE34=Persona Ideal
EXTD=
EXTT0=
EXTT1=
EXTT2=
EXTT3=
EXTT4=
EXTT5=
EXTT6=
EXTT7=
EXTT8=
EXTT9=
EXTT10=
EXTT11=
EXTT12=
EXTT13=
EXTT14=
EXTT15=
EXTT16=
EXTT17=
EXTT18=
EXTT19=
EXTT20=
EXTT21=
EXTT22=
EXTT23=
EXTT24=
EXTT25=
EXTT26=
EXTT27=
EXTT28=
EXTT29=
EXTT30=
EXTT31=
EXTT32=
EXTT33=
EXTT34=
PLAYORDER=
